<?xml version="1.0" encoding="utf-8"?>
<!-- Generator: Adobe Illustrator 22.0.0, SVG Export Plug-In . SVG Version: 6.00 Build 0)  -->
<svg version="1.1" id="Layer_1" xmlns="http://www.w3.org/2000/svg" xmlns:xlink="http://www.w3.org/1999/xlink" x="0px" y="0px"
	 viewBox="0 0 32 32" style="enable-background:new 0 0 32 32;" xml:space="preserve">
<path d="M31.72,30.19c0,0.83-0.67,1.5-1.5,1.5H8.16c-0.83,0-1.5-0.67-1.5-1.5c0-1.46,0.28-2.85,0.79-4.13
	c0.56-1.43,1.42-2.71,2.49-3.78c2.02-2.03,4.82-3.28,7.9-3.28h2.69c1.33,0,2.6,0.23,3.78,0.66h0.01
	C28.63,21.21,31.72,25.34,31.72,30.19z"/>
<path d="M11.19,11.06c0,0.37,0.03,0.74,0.07,1.09c-2.51-0.72-4.35-3.03-4.35-5.77c0-3.32,2.68-6,6-6c2.12,0,3.99,1.1,5.05,2.77
	C14.13,3.75,11.19,7.07,11.19,11.06z"/>
<path d="M25.19,11.06c0,2.34-1.34,4.36-3.29,5.35c-0.59,0.3-1.22,0.5-1.9,0.59c-0.26,0.04-0.54,0.06-0.81,0.06s-0.55-0.02-0.81-0.06
	c-2.14-0.28-3.92-1.69-4.73-3.62c-0.13-0.33-0.24-0.67-0.32-1.02c-0.09-0.42-0.14-0.85-0.14-1.3c0-3.17,2.45-5.77,5.58-5.98
	c0.14-0.02,0.28-0.02,0.42-0.02C22.5,5.06,25.19,7.75,25.19,11.06z"/>
<path d="M5.32,26.06H1.88c-0.83,0-1.5-0.67-1.5-1.5c0-3.09,1.25-5.88,3.27-7.91c2.03-2.02,4.81-3.26,7.89-3.27
	c0.5,1.65,1.51,3.07,2.86,4.08C10.12,18.61,6.71,21.87,5.32,26.06z"/>
</svg>
