<?xml version="1.0" encoding="utf-8"?>
<!-- Generator: Adobe Illustrator 22.0.0, SVG Export Plug-In . SVG Version: 6.00 Build 0)  -->
<svg version="1.1" id="Layer_1" xmlns="http://www.w3.org/2000/svg" xmlns:xlink="http://www.w3.org/1999/xlink" x="0px" y="0px"
	 viewBox="0 0 32 32" style="enable-background:new 0 0 32 32;" xml:space="preserve">
<path d="M25.5,5.83h-9.59c-0.34,0.74-0.87,1.41-1.62,1.81c-0.05,0.03-0.1,0.05-0.14,0.07c0.08,0.08,0.19,0.16,0.28,0.22l0.21,0.15
	c0.17,0.12,0.39,0.28,0.71,0.49c1.2,0.79,1.05,1.73,0.94,2.1c-0.14,0.43-0.57,1.16-1.92,1.16c-2.55,0-4.56-1.72-4.79-1.92
	C9.11,9.49,8,8.51,7.37,6.78C7.09,7.13,6.75,7.42,6.34,7.64C6.29,7.67,6.24,7.69,6.2,7.71c0.07,0.08,0.19,0.16,0.28,0.22l0.21,0.15
	C6.86,8.2,7.08,8.36,7.4,8.57c1.2,0.79,1.05,1.73,0.94,2.09c-0.14,0.44-0.58,1.17-1.92,1.17c-2.55,0-4.56-1.72-4.79-1.92
	C1.48,9.78,1.28,9.59,1.04,9.35c-0.35,0.75-0.54,1.6-0.54,2.48v8c0,3.32,2.69,6,6,6h7.55l9.25,5.35c0.3,0.26,0.76,0.04,0.76-0.35v-5
	h1.44c3.31,0,6-2.68,6-6v-8C31.5,8.52,28.81,5.83,25.5,5.83z M25.79,21.07H6.21c-0.41,0-0.75-0.33-0.75-0.75
	c0-0.41,0.34-0.75,0.75-0.75h19.58c0.41,0,0.75,0.34,0.75,0.75C26.54,20.74,26.2,21.07,25.79,21.07z M25.79,16.57h-14.5
	c-0.41,0-0.75-0.33-0.75-0.75c0-0.41,0.34-0.75,0.75-0.75h14.5c0.41,0,0.75,0.34,0.75,0.75C26.54,16.24,26.2,16.57,25.79,16.57z
	 M25.79,12.07h-4.91c-0.41,0-0.75-0.33-0.75-0.75c0-0.41,0.34-0.75,0.75-0.75h4.91c0.41,0,0.75,0.34,0.75,0.75
	C26.54,11.74,26.2,12.07,25.79,12.07z"/>
<path d="M6.91,10.21c-0.04,0.12-0.36,0.12-0.49,0.12c-2.06,0-3.79-1.54-3.79-1.54c-0.2-0.18-0.48-0.43-0.76-0.77
	C1.49,7.59,1.1,7,0.83,6.24c-0.49-1.37-0.3-2.52-0.26-2.79c0.12-0.64,0.26-1.44,0.94-2.12c0.92-0.92,2.12-0.92,2.3-0.92
	c1.33,0.02,2.15,0.86,2.3,1.02c0.74,0.79,0.8,1.72,0.82,1.99c0.05,0.82-0.2,1.79-0.73,2.42c0,0.01,0,0.01,0,0.01
	C6.03,6.04,5.84,6.2,5.63,6.32C5.28,6.51,5.02,6.49,4.8,6.8C4.5,7.21,4.57,7.83,4.76,8.24c0.21,0.47,0.62,0.75,0.86,0.92
	C5.84,9.31,6.1,9.51,6.58,9.82C6.63,9.86,6.95,10.07,6.91,10.21z"/>
<path d="M14.86,10.21c-0.04,0.12-0.36,0.12-0.49,0.12c-2.06,0-3.79-1.54-3.79-1.54c-0.46-0.41-1.32-1.2-1.8-2.55
	C8.73,6.1,8.69,5.96,8.66,5.83C8.33,4.64,8.48,3.69,8.52,3.45c0.12-0.64,0.26-1.44,0.95-2.12c0.92-0.92,2.11-0.92,2.29-0.92
	c1.33,0.02,2.15,0.86,2.3,1.02c0.74,0.79,0.8,1.72,0.82,1.99c0.05,0.82-0.19,1.78-0.72,2.41C14,6.03,13.8,6.2,13.58,6.32
	c-0.35,0.19-0.61,0.17-0.83,0.48c-0.3,0.41-0.22,1.03-0.04,1.44c0.21,0.47,0.62,0.75,0.86,0.92c0.22,0.15,0.48,0.35,0.96,0.66
	C14.58,9.86,14.9,10.07,14.86,10.21z"/>
</svg>
